<?xml version="1.0" encoding="utf-8"?>
<!-- Generator: Adobe Illustrator 28.2.0, SVG Export Plug-In . SVG Version: 6.00 Build 0)  -->
<svg version="1.1" id="Layer_1" xmlns="http://www.w3.org/2000/svg" xmlns:xlink="http://www.w3.org/1999/xlink" x="0px" y="0px"
	 viewBox="0 0 40 12" style="enable-background:new 0 0 40 12;" xml:space="preserve">
<style type="text/css">
	.st0{fill:#FFFFFF;}
</style>
<g>
	<polygon class="st0" points="7.7,3.4 5.7,3.4 1.8,7.5 1.8,0 0,0 0,11.9 1.8,11.9 1.8,9.7 3.3,8.1 5.8,11.9 7.9,11.9 4.6,6.8 	"/>
	<path class="st0" d="M14.6,3.8c-0.7-0.4-1.4-0.5-2.3-0.5c-0.8,0-1.6,0.2-2.3,0.5C9.4,4.2,8.9,4.7,8.6,5.4C8.2,6,8,6.8,8,7.6
		c0,0.9,0.2,1.6,0.5,2.3c0.4,0.7,0.9,1.2,1.5,1.5c0.7,0.4,1.4,0.5,2.3,0.5c0.8,0,1.6-0.2,2.3-0.5c0.7-0.4,1.2-0.9,1.5-1.5
		c0.4-0.7,0.5-1.4,0.5-2.3c0-0.8-0.2-1.6-0.5-2.3C15.8,4.7,15.3,4.2,14.6,3.8z M14.2,9.7c-0.5,0.5-1.1,0.8-1.8,0.8
		c-0.7,0-1.4-0.3-1.8-0.8c-0.5-0.5-0.7-1.2-0.7-2s0.2-1.5,0.7-2c0.5-0.5,1.1-0.8,1.8-0.8c0.7,0,1.4,0.3,1.8,0.8
		c0.5,0.5,0.7,1.2,0.7,2S14.6,9.1,14.2,9.7z"/>
	<path class="st0" d="M25.6,10.1c-0.1-0.1-0.2-0.4-0.2-0.7V5h2.1V3.4h-2.1V1h-1.8v2.4h-3.2V1h-1.8v2.4h-1.5V5h1.5v4.6
		c0,0.8,0.2,1.4,0.6,1.7c0.4,0.4,1,0.6,1.8,0.6h1.7v-1.6h-1.4c-0.3,0-0.5-0.1-0.7-0.2c-0.1-0.1-0.2-0.4-0.2-0.7V5h3.2v4.6
		c0,0.8,0.2,1.4,0.5,1.7c0.4,0.4,0.9,0.6,1.8,0.6h1.7v-1.6h-1.4C25.9,10.3,25.7,10.2,25.6,10.1z"/>
	<path class="st0" d="M29.5,0c-0.3,0-0.6,0.1-0.8,0.3c-0.2,0.2-0.3,0.5-0.3,0.8c0,0.3,0.1,0.6,0.3,0.8c0.2,0.2,0.5,0.3,0.8,0.3
		c0.3,0,0.6-0.1,0.8-0.3c0.2-0.2,0.3-0.5,0.3-0.8c0-0.3-0.1-0.6-0.3-0.8C30,0.1,29.8,0,29.5,0z"/>
	<rect x="28.6" y="3.4" class="st0" width="1.8" height="8.5"/>
	<path class="st0" d="M39,4.2c-0.6-0.6-1.5-0.9-2.5-0.9c-1.2,0-2.1,0.4-2.7,1.2l-0.2-1.1h-1.6v8.5h1.8V7.6c0-0.9,0.2-1.5,0.6-2
		c0.4-0.5,1-0.7,1.7-0.7c0.7,0,1.2,0.2,1.5,0.6c0.3,0.4,0.5,1,0.5,1.8v4.6H40V7.2C40,5.8,39.7,4.8,39,4.2z"/>
</g>
</svg>
