<?xml version="1.0" encoding="utf-8"?>
<!-- Generator: Adobe Illustrator 28.2.0, SVG Export Plug-In . SVG Version: 6.00 Build 0)  -->
<svg version="1.1" id="Layer_1" xmlns="http://www.w3.org/2000/svg" xmlns:xlink="http://www.w3.org/1999/xlink" x="0px" y="0px"
	 viewBox="0 0 32 9.6" style="enable-background:new 0 0 32 9.6;" xml:space="preserve">
<g>
	<polygon points="6.2,2.7 4.5,2.7 1.4,6 1.4,0 0,0 0,9.5 1.4,9.5 1.4,7.8 2.6,6.5 4.6,9.5 6.3,9.5 3.7,5.4 	"/>
	<path d="M11.7,3.1c-0.5-0.3-1.1-0.4-1.8-0.4c-0.7,0-1.3,0.1-1.8,0.4C7.6,3.4,7.1,3.8,6.9,4.3C6.6,4.8,6.4,5.4,6.4,6.1
		c0,0.7,0.1,1.3,0.4,1.8c0.3,0.5,0.7,0.9,1.2,1.2c0.5,0.3,1.1,0.4,1.8,0.4c0.7,0,1.3-0.1,1.8-0.4c0.5-0.3,0.9-0.7,1.2-1.2
		c0.3-0.5,0.4-1.1,0.4-1.8c0-0.7-0.1-1.3-0.4-1.8C12.6,3.8,12.2,3.4,11.7,3.1z M11.3,7.7C11,8.1,10.5,8.4,9.9,8.4
		c-0.6,0-1.1-0.2-1.4-0.6c-0.4-0.4-0.5-1-0.5-1.6s0.2-1.2,0.5-1.6c0.4-0.4,0.8-0.6,1.4-0.6c0.6,0,1.1,0.2,1.4,0.6
		c0.4,0.4,0.5,1,0.5,1.6S11.7,7.3,11.3,7.7z"/>
	<path d="M20.5,8.1c-0.1-0.1-0.2-0.3-0.2-0.6V4h1.6V2.7h-1.6V0.8h-1.4v1.9h-2.6V0.8h-1.4v1.9h-1.2V4h1.2v3.7c0,0.6,0.1,1.1,0.4,1.4
		c0.3,0.3,0.8,0.4,1.4,0.4h1.4V8.2H17c-0.3,0-0.4-0.1-0.5-0.2c-0.1-0.1-0.2-0.3-0.2-0.6V4h2.6v3.7c0,0.6,0.1,1.1,0.4,1.4
		c0.3,0.3,0.8,0.4,1.4,0.4h1.4V8.2H21C20.7,8.2,20.6,8.2,20.5,8.1z"/>
	<path d="M23.6,0c-0.2,0-0.5,0.1-0.6,0.2c-0.2,0.2-0.3,0.4-0.3,0.6c0,0.2,0.1,0.5,0.3,0.6c0.2,0.2,0.4,0.2,0.6,0.2
		c0.2,0,0.5-0.1,0.6-0.2c0.2-0.2,0.3-0.4,0.3-0.6c0-0.2-0.1-0.5-0.3-0.6C24,0.1,23.8,0,23.6,0z"/>
	<rect x="22.9" y="2.7" width="1.4" height="6.8"/>
	<path d="M31.2,3.4c-0.5-0.5-1.2-0.7-2-0.7c-0.9,0-1.7,0.3-2.2,1l-0.2-0.9h-1.2v6.8h1.4V6.1c0-0.7,0.2-1.2,0.5-1.6
		c0.3-0.4,0.8-0.6,1.3-0.6c0.5,0,0.9,0.2,1.2,0.5c0.3,0.3,0.4,0.8,0.4,1.5v3.7H32V5.8C32,4.7,31.7,3.9,31.2,3.4z"/>
</g>
</svg>
