<?xml version="1.0" encoding="UTF-8"?><svg id="Layer_1" xmlns="http://www.w3.org/2000/svg" viewBox="0 0 66.89 20"><defs><style>.cls-1{stroke-width:0px;}</style></defs><polygon class="cls-1" points="12.92 5.67 9.46 5.67 2.99 12.59 2.99 0 0 0 0 19.83 2.99 19.83 2.99 16.21 5.5 13.55 9.71 19.83 13.25 19.83 7.63 11.37 12.92 5.67"/><path class="cls-1" d="M24.44,6.42c-1.1-.61-2.36-.91-3.78-.91s-2.68.3-3.78.91c-1.1.61-1.95,1.46-2.54,2.56-.6,1.1-.9,2.36-.9,3.78s.3,2.71.9,3.8c.6,1.1,1.45,1.95,2.54,2.54,1.1.6,2.36.9,3.78.9s2.68-.3,3.78-.9c1.1-.6,1.95-1.45,2.54-2.54.6-1.1.9-2.37.9-3.8s-.3-2.68-.9-3.78c-.6-1.1-1.45-1.95-2.54-2.56ZM23.69,16.14c-.77.88-1.78,1.31-3.03,1.31s-2.26-.44-3.02-1.31c-.76-.88-1.13-2.01-1.13-3.39s.38-2.51,1.13-3.39c.76-.88,1.76-1.31,3.02-1.31s2.26.44,3.03,1.31c.77.88,1.15,2.01,1.15,3.39s-.38,2.51-1.15,3.39Z"/><path class="cls-1" d="M42.76,16.86c-.22-.23-.33-.62-.33-1.18v-7.39h3.43v-2.63h-3.43V1.72h-2.99v3.96h-5.34V1.72h-3.02v3.96h-2.46v2.63h2.46v7.69c0,1.31.31,2.28.93,2.9.62.63,1.6.94,2.95.94h2.88v-2.63h-2.27c-.53,0-.91-.12-1.13-.35-.22-.23-.33-.62-.33-1.18v-7.39h5.34v7.69c0,1.31.3,2.28.91,2.9.61.63,1.59.94,2.93.94h2.88v-2.63h-2.27c-.53,0-.91-.12-1.13-.35Z"/><path class="cls-1" d="M49.29,0c-.52,0-.95.17-1.3.51s-.53.77-.53,1.29.18.95.53,1.29c.35.34.78.51,1.3.51s.95-.17,1.3-.51c.35-.34.53-.77.53-1.29s-.18-.95-.53-1.29c-.35-.34-.78-.51-1.3-.51Z"/><rect class="cls-1" x="47.8" y="5.67" width="2.99" height="14.16"/><path class="cls-1" d="M65.29,7.05c-1.06-1.03-2.43-1.55-4.11-1.55-1.95,0-3.47.67-4.54,2.02l-.33-1.85h-2.6v14.16h2.99v-7.14c0-1.44.34-2.57,1.01-3.39.67-.82,1.6-1.23,2.78-1.23,1.11,0,1.95.35,2.52,1.05.57.7.86,1.72.86,3.07v7.63h3.02v-7.8c0-2.29-.53-3.95-1.59-4.98Z"/></svg>