<?xml version="1.0" encoding="utf-8"?>
<!-- Generator: Adobe Illustrator 28.2.0, SVG Export Plug-In . SVG Version: 6.00 Build 0)  -->
<svg version="1.1" id="Layer_1" xmlns="http://www.w3.org/2000/svg" xmlns:xlink="http://www.w3.org/1999/xlink" x="0px" y="0px"
	 viewBox="0 0 98.5 29.5" style="enable-background:new 0 0 98.5 29.5;" xml:space="preserve">
<g>
	<polygon points="19,8.4 13.9,8.4 4.4,18.5 4.4,0 0,0 0,29.2 4.4,29.2 4.4,23.9 8.1,20 14.3,29.2 19.5,29.2 11.2,16.7 	"/>
	<path d="M36,9.5c-1.6-0.9-3.5-1.3-5.6-1.3c-2.1,0-3.9,0.4-5.6,1.3c-1.6,0.9-2.9,2.2-3.7,3.8c-0.9,1.6-1.3,3.5-1.3,5.6
		c0,2.1,0.4,4,1.3,5.6c0.9,1.6,2.1,2.9,3.7,3.7c1.6,0.9,3.5,1.3,5.6,1.3c2.1,0,3.9-0.4,5.6-1.3c1.6-0.9,2.9-2.1,3.7-3.7
		c0.9-1.6,1.3-3.5,1.3-5.6c0-2.1-0.4-3.9-1.3-5.6C38.9,11.6,37.6,10.3,36,9.5z M34.9,23.8c-1.1,1.3-2.6,1.9-4.5,1.9
		c-1.8,0-3.3-0.6-4.4-1.9c-1.1-1.3-1.7-3-1.7-5s0.6-3.7,1.7-5c1.1-1.3,2.6-1.9,4.4-1.9c1.8,0,3.3,0.6,4.5,1.9c1.1,1.3,1.7,3,1.7,5
		S36,22.5,34.9,23.8z"/>
	<path d="M63,24.8c-0.3-0.3-0.5-0.9-0.5-1.7V12.2h5.1V8.4h-5.1V2.5h-4.4v5.8h-7.9V2.5h-4.4v5.8h-3.6v3.9h3.6v11.3
		c0,1.9,0.5,3.4,1.4,4.3c0.9,0.9,2.4,1.4,4.3,1.4h4.2v-3.9h-3.3c-0.8,0-1.3-0.2-1.7-0.5c-0.3-0.3-0.5-0.9-0.5-1.7V12.2h7.9v11.3
		c0,1.9,0.4,3.4,1.3,4.3c0.9,0.9,2.3,1.4,4.3,1.4H68v-3.9h-3.3C63.9,25.3,63.3,25.2,63,24.8z"/>
	<path d="M72.6,0c-0.8,0-1.4,0.3-1.9,0.8c-0.5,0.5-0.8,1.1-0.8,1.9c0,0.8,0.3,1.4,0.8,1.9c0.5,0.5,1.2,0.8,1.9,0.8
		c0.8,0,1.4-0.3,1.9-0.8C75,4,75.3,3.4,75.3,2.6c0-0.8-0.3-1.4-0.8-1.9C74,0.3,73.4,0,72.6,0z"/>
	<rect x="70.4" y="8.4" width="4.4" height="20.9"/>
	<path d="M96.2,10.4c-1.6-1.5-3.6-2.3-6-2.3c-2.9,0-5.1,1-6.7,3l-0.5-2.7h-3.8v20.9h4.4V18.7c0-2.1,0.5-3.8,1.5-5
		c1-1.2,2.4-1.8,4.1-1.8c1.6,0,2.9,0.5,3.7,1.5c0.8,1,1.3,2.5,1.3,4.5v11.2h4.4V17.7C98.5,14.4,97.7,11.9,96.2,10.4z"/>
</g>
</svg>
